<svg width="85" height="85" viewBox="0 0 85 85" fill="none" xmlns="http://www.w3.org/2000/svg">
<path d="M13.0571 9.78237L14.9876 16.3215H66.4231C72.8815 16.3215 77.8131 22.3482 75.9528 28.6416L70.1437 48.2976C68.9082 52.485 64.9805 55.2825 60.6141 55.2825H28.4765C24.1101 55.2825 20.1859 52.485 18.9469 48.2976L8.0062 11.2741C7.89782 10.9398 7.8575 10.5871 7.88761 10.2369C7.91771 9.8867 8.01764 9.54609 8.1815 9.23514C8.34537 8.92418 8.56984 8.64919 8.84168 8.42639C9.11352 8.20358 9.42723 8.03747 9.7643 7.93785C10.1014 7.83822 10.455 7.80711 10.8043 7.84635C11.1536 7.88558 11.4915 7.99436 11.798 8.16628C12.1046 8.33819 12.3736 8.56976 12.5893 8.84732C12.8049 9.12488 12.9663 9.44282 13.0571 9.78237ZM52.9693 31.3794C53.3661 30.8129 53.5241 30.113 53.409 29.431C53.2939 28.7489 52.915 28.1396 52.3542 27.7347C51.7935 27.3298 51.0959 27.1619 50.4123 27.2672C49.7287 27.3726 49.114 27.7427 48.7011 28.2976L42.6885 36.6198L40.586 34.219C40.3613 33.9488 40.0849 33.7264 39.7729 33.5648C39.4609 33.4032 39.1197 33.3056 38.7694 33.278C38.4191 33.2503 38.0668 33.293 37.7333 33.4036C37.3998 33.5142 37.0918 33.6905 36.8275 33.922C36.5632 34.1535 36.3479 34.4356 36.1943 34.7516C36.0407 35.0676 35.952 35.4112 35.9333 35.7621C35.9145 36.113 35.9663 36.464 36.0854 36.7946C36.2045 37.1252 36.3885 37.4286 36.6267 37.6869L40.2561 41.8322C40.5944 42.219 41.0156 42.5245 41.4883 42.7261C41.961 42.9277 42.473 43.0201 42.9864 42.9965C43.4997 42.9729 44.0011 42.8338 44.4533 42.5897C44.9055 42.3456 45.2969 42.0027 45.5983 41.5865L52.9693 31.3794ZM29.8349 60.5475C27.7403 60.5475 25.7316 61.3796 24.2505 62.8606C22.7694 64.3417 21.9374 66.3505 21.9374 68.445C21.9374 70.5395 22.7694 72.5483 24.2505 74.0294C25.7316 75.5104 27.7403 76.3425 29.8349 76.3425C31.9294 76.3425 33.9382 75.5104 35.4193 74.0294C36.9003 72.5483 37.7324 70.5395 37.7324 68.445C37.7324 66.3505 36.9003 64.3417 35.4193 62.8606C33.9382 61.3796 31.9294 60.5475 29.8349 60.5475ZM57.9149 60.5475C55.8203 60.5475 53.8116 61.3796 52.3305 62.8606C50.8494 64.3417 50.0174 66.3505 50.0174 68.445C50.0174 70.5395 50.8494 72.5483 52.3305 74.0294C53.8116 75.5104 55.8203 76.3425 57.9149 76.3425C60.0094 76.3425 62.0182 75.5104 63.4993 74.0294C64.9803 72.5483 65.8124 70.5395 65.8124 68.445C65.8124 66.3505 64.9803 64.3417 63.4993 62.8606C62.0182 61.3796 60.0094 60.5475 57.9149 60.5475Z" fill="#0C58D3"/>
</svg>
