<svg width="74" height="74" viewBox="0 0 74 74" fill="none" xmlns="http://www.w3.org/2000/svg">
<path fill-rule="evenodd" clip-rule="evenodd" d="M37.0003 6.16663C34.5614 6.16663 32.2211 7.13479 30.4945 8.86146L27.741 11.6149C27.1688 12.1793 26.3988 12.4979 25.595 12.5029H21.707C20.4982 12.5025 19.3012 12.7403 18.1843 13.2026C17.0675 13.665 16.0527 14.343 15.198 15.1977C14.3433 16.0524 13.6654 17.0672 13.203 18.184C12.7406 19.3009 12.5028 20.4979 12.5032 21.7066V25.5978C12.4982 26.4015 12.1796 27.1715 11.6152 27.7438L8.86178 30.4972C7.13634 32.2227 6.16699 34.5629 6.16699 37.003C6.16699 39.4432 7.13634 41.7834 8.86178 43.5089L11.6152 46.2623C12.1796 46.8345 12.4982 47.6046 12.5032 48.4083V52.2995C12.5032 54.7396 13.4726 57.0799 15.198 58.8053C16.9235 60.5308 19.2637 61.5001 21.7039 61.5001H25.595C26.3998 61.5001 27.1737 61.8208 27.741 62.3881L30.4945 65.1415C32.2199 66.867 34.5601 67.8363 37.0003 67.8363C39.4404 67.8363 41.7807 66.867 43.5061 65.1415L46.2595 62.3881C46.8318 61.8237 47.6018 61.5051 48.4055 61.5001H52.2967C54.7369 61.5001 57.0771 60.5308 58.8026 58.8053C60.528 57.0799 61.4974 54.7396 61.4974 52.2995V48.4083C61.4974 47.6035 61.818 46.8296 62.3854 46.2623L65.1388 43.5089C66.8642 41.7834 67.8336 39.4432 67.8336 37.003C67.8336 34.5629 66.8642 32.2227 65.1388 30.4972L62.3854 27.7438C61.821 27.1715 61.5023 26.4015 61.4974 25.5978V21.7066C61.4974 19.2665 60.528 16.9262 58.8026 15.2008C57.0771 13.4753 54.7369 12.506 52.2967 12.506H48.4055C47.6018 12.501 46.8318 12.1823 46.2595 11.618L43.5061 8.86454C42.6524 8.00908 41.6383 7.33043 40.522 6.86748C39.4056 6.40453 38.2088 6.16636 37.0003 6.16663ZM48.3562 30.0008C48.6574 29.718 48.8986 29.3775 49.0657 28.9996C49.2327 28.6217 49.3221 28.2141 49.3285 27.801C49.3349 27.3879 49.2582 26.9777 49.103 26.5949C48.9478 26.212 48.7172 25.8642 48.425 25.5721C48.1327 25.2801 47.7848 25.0498 47.4018 24.8948C47.0188 24.7399 46.6085 24.6635 46.1954 24.6702C45.7823 24.6769 45.3748 24.7666 44.997 24.9339C44.6193 25.1012 44.279 25.3427 43.9964 25.644L30.8829 38.7575L26.9455 34.82C26.3674 34.2415 25.5831 33.9163 24.7652 33.916C23.9473 33.9157 23.1627 34.2404 22.5842 34.8185C22.0056 35.3967 21.6804 36.181 21.6801 36.9989C21.6798 37.8168 22.0045 38.6013 22.5826 39.1799L28.703 45.2972C29.2812 45.8752 30.0654 46.2 30.8829 46.2C31.7005 46.2 32.4847 45.8752 33.0629 45.2972L48.3562 30.0039V30.0008Z" fill="#3BC53D"/>
</svg>
